<?xml version="1.0" encoding="UTF-8"?>
<svg xmlns="http://www.w3.org/2000/svg" width="224" height="40" viewBox="0 0 224 40" role="presentation">
  <style>
		.st0,.text{fill-rule:evenodd;clip-rule:evenodd;fill:#eca900}.text{fill:#222}
	</style>
  <g transform="translate(183)">
    <path class="st0" d="M27.4 25.1H14.6v13.4l13.8-13.4zM26.9 13.1H12.6L.3 25.1h14.3zM40.2.2H12.8L.5 12.2h27.4z"></path>
    <path class="st0" d="M28.4 12.9v26.9l12.3-11.9V1z"></path>
  </g>
  <!--
  <path class="text" d="M17.3 19.1c0-3.1-2.1-5.2-4.7-5.2S8 16 8 19v.1c0 3 2.1 5.2 4.6 5.2 2.7 0 4.7-2.1 4.7-5.2zM.3 7.7h8v3c1.6-1.9 3.5-3.5 6.9-3.5 5.4 0 10.1 4.5 10.1 11.8 0 7.4-4.7 11.9-10 11.9-3.4 0-5.5-1.6-6.9-3.3v9.5h-8V7.7zm28.1 22.5h7.7V8h-7.7v22.2zM28.3 6h8V.2h-8V6zm27.5 11.3c-.3-2.5-1.8-4.2-4-4.2-2.1 0-3.5 1.7-4 4.2h8zm-15.5 2c0-6.8 4.8-12.1 11.5-12.1 7.9 0 11.5 5.8 11.5 12.6v1.7H48c.6 2.5 2.4 3.8 4.9 3.8 1.9 0 3.4-.7 5.1-2.3l4.4 3.7c-2.2 2.8-5.3 4.7-9.9 4.7-7.2-.2-12.2-5-12.2-12.1zM68 23.7v-9.3h-2.7V8H68V2.2h8V8h5.3v6.4H76v7.7c0 1.6.7 2.3 2.2 2.3 1.1 0 2.1-.3 3-.8v6.3c-1.4.8-3.3 1.3-5.6 1.3-4.8 0-7.6-2.1-7.6-7.5m30.8-6.4c-.3-2.5-1.8-4.2-4-4.2-2.1 0-3.5 1.7-4 4.2h8zm-15.5 2c0-6.8 4.8-12.1 11.5-12.1 7.9 0 11.5 5.8 11.5 12.6v1.7H91c.6 2.5 2.4 3.8 4.9 3.8 1.9 0 3.4-.7 5.1-2.3l4.4 3.7c-2.2 2.8-5.4 4.7-9.9 4.7-7.2-.2-12.2-5-12.2-12.1zm27-11.7h7.9v4.6c1.3-3.1 3.4-5.1 7.1-4.9v8.4h-.7c-4.1 0-6.4 2.4-6.4 7.6v7h-7.9V7.6zm16 11.7c0-6.6 5-12.1 12.2-12.1 4.7 0 7.8 2 9.7 5.1l-5.4 4.1c-1.1-1.5-2.3-2.4-4.2-2.4-2.6 0-4.5 2.3-4.5 5.1v.1c0 3 1.8 5.2 4.5 5.2 1.9 0 3.1-.9 4.4-2.4l5.3 3.9c-2.1 3.1-5.1 5.3-10.1 5.3-6.9 0-11.9-5.4-11.9-11.9m25.1 10.9h7.7V8h-7.7v22.2zM151.3 6h8V.2h-8V6zM164.3 30.2h8V.2h-8z"></path>
  -->
</svg>
